<svg version="1.1" id="Layer_1" xmlns="http://www.w3.org/2000/svg" xmlns:xlink="http://www.w3.org/1999/xlink" x="0px" y="0px"
	 width="100%" viewBox="0 0 80 80" enable-background="new 0 0 80 80" xml:space="preserve">
<path fill="#000101" opacity="1.000000" stroke="none" 
	d="
M58.000000,81.000000 
	C39.045780,81.000000 20.091560,81.000000 1.068670,81.000000 
	C1.068670,54.443512 1.068670,27.886806 1.068670,1.000000 
	C15.685912,1.000000 30.374298,1.000000 45.893250,1.236369 
	C45.582451,2.365039 44.470608,3.298496 43.294338,4.142123 
	C39.352692,6.969093 34.870667,9.265047 31.561823,12.696160 
	C27.328308,17.086113 25.160057,22.758591 28.477186,28.753813 
	C31.541138,34.291454 35.162392,39.520741 38.792515,45.290016 
	C32.092148,52.831409 24.767460,61.075481 17.303967,69.475784 
	C20.692705,72.409218 23.973656,75.249344 27.516132,78.315849 
	C34.716534,70.311302 41.728081,62.516689 48.690464,54.776737 
	C54.462234,58.784111 55.478165,63.748608 52.156101,68.672272 
	C51.600136,69.496277 51.734447,71.309395 52.273193,72.252052 
	C53.999393,75.272476 56.065231,78.098778 58.000000,81.000000 
z"/>
<path fill="#000000" opacity="1.000000" stroke="none" 
	d="
M51.000000,1.000000 
	C60.965855,1.000000 70.931709,1.000000 80.938644,1.000000 
	C80.938644,27.666693 80.938644,54.333363 80.938644,81.000000 
	C74.897774,81.000000 68.918266,81.000000 62.007706,80.901825 
	C61.496338,79.938469 61.759594,78.941917 62.359264,78.227913 
	C70.664818,68.338837 71.106316,62.256866 63.820114,51.470623 
	C61.334930,47.791641 58.462502,44.338482 55.485031,41.036400 
	C51.261951,36.352913 46.676907,31.996225 42.442692,27.322197 
	C39.837334,24.446230 40.249798,21.481117 43.607243,19.468824 
	C46.111507,17.967890 48.905884,16.948914 51.578423,15.731450 
	C54.083736,14.590164 55.702690,13.450665 53.926838,10.138380 
	C52.440495,7.366078 51.938099,4.066240 51.000000,1.000000 
z"/>
<path fill="#026AF6" opacity="1.000000" stroke="none" 
	d="
M50.583336,1.000000 
	C51.938099,4.066240 52.440495,7.366078 53.926838,10.138380 
	C55.702690,13.450665 54.083736,14.590164 51.578423,15.731450 
	C48.905884,16.948914 46.111507,17.967890 43.607243,19.468824 
	C40.249798,21.481117 39.837334,24.446230 42.442692,27.322197 
	C46.676907,31.996225 51.261951,36.352913 55.485031,41.036400 
	C58.462502,44.338482 61.334930,47.791641 63.820114,51.470623 
	C71.106316,62.256866 70.664818,68.338837 62.359264,78.227913 
	C61.759594,78.941917 61.496338,79.938469 61.538330,80.901825 
	C60.933331,81.000000 59.866661,81.000000 58.399994,81.000000 
	C56.065231,78.098778 53.999393,75.272476 52.273193,72.252052 
	C51.734447,71.309395 51.600136,69.496277 52.156101,68.672272 
	C55.478165,63.748608 54.462234,58.784111 48.690464,54.776737 
	C41.728081,62.516689 34.716534,70.311302 27.516132,78.315849 
	C23.973656,75.249344 20.692705,72.409218 17.303967,69.475784 
	C24.767460,61.075481 32.092148,52.831409 38.792515,45.290016 
	C35.162392,39.520741 31.541138,34.291454 28.477186,28.753813 
	C25.160057,22.758591 27.328308,17.086113 31.561823,12.696160 
	C34.870667,9.265047 39.352692,6.969093 43.294338,4.142123 
	C44.470608,3.298496 45.582451,2.365039 46.361908,1.236369 
	C47.388889,1.000000 48.777779,1.000000 50.583336,1.000000 
z"/>
</svg>